<svg xmlns="http://www.w3.org/2000/svg" viewBox="0 0 2432.2 601.81">
    <title>Firehub Core Professional Logo</title>
    <style type="text/css">
        .color {fill: #d50000; fill-rule:evenodd; clip-rule:evenodd;}
    </style>
    <path class="color" d="M201.36,210.17H385.25V394.06H201.36Zm45.24,45.24H340v93.42H246.6Zm-5.16-9.59H345.18a4.44,4.44,0,0,1,4.43,4.42V354a4.45,4.45,0,0,1-4.43,4.43H241.44A4.44,4.44,0,0,1,237,354V250.24A4.44,4.44,0,0,1,241.44,245.82Zm131-26.3h-23l26.55,26.55V223A3.52,3.52,0,0,0,372.39,219.52ZM332.4,102a6.88,6.88,0,1,1-6.89,6.88A6.88,6.88,0,0,1,332.4,102Zm138.52-3.1a15.44,15.44,0,1,1-15.17,15.44A15.31,15.31,0,0,1,470.92,98.9ZM453.27,225.16a6.89,6.89,0,1,1-6.89-6.88A6.89,6.89,0,0,1,453.27,225.16ZM491.56,263a6.89,6.89,0,1,1-6.89-6.88A6.88,6.88,0,0,1,491.56,263Zm70.94,23.41a15.44,15.44,0,1,1-15.43,15.44A15.44,15.44,0,0,1,562.5,286.43ZM452.1,338.62a6.89,6.89,0,1,1-6.88-6.89A6.88,6.88,0,0,1,452.1,338.62Zm47.7,149.86a15.44,15.44,0,1,1-15.43-15.43A15.43,15.43,0,0,1,499.8,488.48Zm-95.05,6.88a6.88,6.88,0,1,1,0-9.73A6.89,6.89,0,0,1,404.75,495.36Zm-74.08-49.85a7.22,7.22,0,1,1-7.21,7.22A7.22,7.22,0,0,1,330.67,445.51Zm0-7.86a15.08,15.08,0,1,1-15.07,15.08A15.08,15.08,0,0,1,330.67,437.65Zm-75.22,46.08a7.21,7.21,0,1,1-7.22,7.21A7.21,7.21,0,0,1,255.45,483.73Zm-74.94,8.2a6.89,6.89,0,1,0,0-9.74A6.89,6.89,0,0,0,180.51,491.93ZM89.63,480.62a15.44,15.44,0,1,0,15.44-15.44A15.43,15.43,0,0,0,89.63,480.62Zm8.32-142a6.89,6.89,0,1,0,6.89-6.89A6.88,6.88,0,0,0,98,338.62Zm40-76.8a6.89,6.89,0,1,0,6.89-6.88A6.88,6.88,0,0,0,137.9,261.82ZM256.21,141.38a6.89,6.89,0,1,0,6.88,6.88A6.88,6.88,0,0,0,256.21,141.38ZM179.85,107a6.88,6.88,0,1,1,0,9.73A6.89,6.89,0,0,1,179.85,107ZM34.17,286.43a15.44,15.44,0,1,0,15.44,15.44A15.43,15.43,0,0,0,34.17,286.43ZM308.5,567.64a15.44,15.44,0,1,1-15.44-15.43A15.44,15.44,0,0,1,308.5,567.64ZM293.06,18.74a15.44,15.44,0,1,1-15.43,15.43A15.43,15.43,0,0,1,293.06,18.74ZM89.46,129a15.44,15.44,0,1,1,15.44,15.17A15.3,15.3,0,0,1,89.46,129Zm99.12,57.55h22V143.19L192.35,125a15.23,15.23,0,1,1,5.57-5.56L206.5,128l4,4,7.86,7.86v46.64h33.88V163a15.24,15.24,0,1,1,7.86,0v23.58h29V68.12a34.18,34.18,0,1,1,7.87,0V186.57h31.46v-63a15.25,15.25,0,1,1,7.87,0v63h30V142.88l7.74-7.87,9.21-9.38,5.56-5.65,1.68-1.71,7.73-7.87h39.31a33.81,33.81,0,0,1,33.37-30.24c18.55,0,33.58,15.3,33.58,34.18s-15,34.17-33.58,34.17a33.81,33.81,0,0,1-33.37-30.24H401.44l-27.38,27.86v40.44h24a10.85,10.85,0,0,1,10.81,10.82v23.84h22.8a15.24,15.24,0,1,1,0,7.86h-22.8v30H470a15.24,15.24,0,1,1,0,7.86h-61.1v31H528.56a34.18,34.18,0,1,1,0,7.87H408.85v28.88h21.64a15.25,15.25,0,1,1,0,7.87H408.85v39.28h47l7.86,7.87,9.38,9.38,5.65,5.65,1.71,1.71,7.87,7.86v40.24a34.18,34.18,0,1,1-7.87,0v-37L452.57,389.7H408.85v17.15A10.85,10.85,0,0,1,398,417.66h-24v41.46l18.18,18.18a15.25,15.25,0,1,1-5.56,5.56l-8.59-8.58-4-4-7.87-7.86V417.66H297v116a34.18,34.18,0,1,1-7.87,0v-116H259.38v58.72a15.08,15.08,0,1,1-7.87,0V417.66H219.06v41.28l-7.86,7.87-4,4-8.58,8.59a15.25,15.25,0,1,1-5.57-5.57l18.19-18.18v-38H188.58a10.85,10.85,0,0,1-10.82-10.81V381.79h-40.9L109,409.65v37a34.18,34.18,0,1,1-7.87,0V406.39l7.87-7.86,1.71-1.71,5.65-5.65,9.38-9.38,7.87-7.87h44.15V342.55h-58.2a15.25,15.25,0,1,1,0-7.87h58.2V305.8H68.12a34.17,34.17,0,1,1,0-7.87H177.76V265.75H159.51a15.24,15.24,0,1,1,0-7.86h18.25V233.61H133.44l-7.87-7.73-9.38-9.21-5.65-5.56-1.71-1.68L101,201.7V162.38A33.8,33.8,0,0,1,70.72,129c0-18.55,15.3-33.59,34.18-33.59s34.17,15,34.17,33.59a33.8,33.8,0,0,1-30.24,33.36V198.5l27.86,27.38h41.07V197.39A10.85,10.85,0,0,1,188.58,186.57Z"/>
    <g>
        <path class="color" d="M787.77,198.16v32.1H691.62v64.2h81.15v32.25H691.62v88.35H651V198.16Z"/>
        <path class="color" d="M862.32,216.31a21.11,21.11,0,0,1-2,9,24.38,24.38,0,0,1-12.75,12.37,23.08,23.08,0,0,1-9.3,1.88,22.16,22.16,0,0,1-9.07-1.88,23.88,23.88,0,0,1-7.43-5,24.28,24.28,0,0,1-5-7.35,21.83,21.83,0,0,1-1.88-9,23.25,23.25,0,0,1,1.88-9.3,23.79,23.79,0,0,1,5-7.5,24.25,24.25,0,0,1,7.43-5,22.32,22.32,0,0,1,9.07-1.87,23.24,23.24,0,0,1,9.3,1.87,25,25,0,0,1,7.58,5,24.18,24.18,0,0,1,5.17,7.5A22.47,22.47,0,0,1,862.32,216.31Zm-5.55,44.85v153.9h-37V261.16Z"/>
        <path class="color" d="M898.62,415.06V261.16h21.75q5.7,0,8,2.1t3,7.2l2.25,18.6q8.25-14.25,19.35-22.5a40.72,40.72,0,0,1,24.9-8.25q11.4,0,18.9,5.25l-4.8,27.75a5.72,5.72,0,0,1-1.95,3.82,6.6,6.6,0,0,1-4.05,1.13,25.26,25.26,0,0,1-6.15-1.05,41.16,41.16,0,0,0-10.35-1q-11.55,0-19.8,6.37t-14,18.68v95.85Z"/>
        <path class="color" d="M1084.77,258.76a74.7,74.7,0,0,1,26.77,4.65A58.77,58.77,0,0,1,1132.62,277a62.2,62.2,0,0,1,13.8,21.9q4.95,13,4.95,29.63a53.3,53.3,0,0,1-.38,7,11.11,11.11,0,0,1-1.35,4.35,5.45,5.45,0,0,1-2.62,2.25,11.18,11.18,0,0,1-4.2.68h-95.1q1.65,23.7,12.75,34.8t29.4,11.1a50.89,50.89,0,0,0,15.52-2.1,72.8,72.8,0,0,0,11.4-4.65q4.88-2.55,8.55-4.65a14.36,14.36,0,0,1,7.13-2.1,8,8,0,0,1,3.9.9,8.62,8.62,0,0,1,2.85,2.55l10.8,13.5a61.47,61.47,0,0,1-13.8,12.07,76.93,76.93,0,0,1-16,7.8,87.33,87.33,0,0,1-17,4.13,121.29,121.29,0,0,1-16.72,1.2,82.21,82.21,0,0,1-29.85-5.33,66.56,66.56,0,0,1-24-15.75,73.8,73.8,0,0,1-16.05-25.8q-5.85-15.36-5.85-35.62a85.26,85.26,0,0,1,5.1-29.63A71.42,71.42,0,0,1,1030.54,281a69,69,0,0,1,23.25-16.27Q1067.52,258.76,1084.77,258.76Zm.75,26.55q-16.2,0-25.35,9.15t-11.7,26h69.6a46.25,46.25,0,0,0-2-13.58,31.29,31.29,0,0,0-6-11.17,28.52,28.52,0,0,0-10.2-7.58A34.74,34.74,0,0,0,1085.52,285.31Z"/>
        <path class="color" d="M1366.61,415.06H1326v-94.8h-101.7v94.8h-40.65V198.16h40.65v93.3H1326v-93.3h40.65Z"/>
        <path class="color" d="M1442.21,261.16V359q0,14.1,6.53,21.82t19.57,7.73a39.13,39.13,0,0,0,18-4.28,62.9,62.9,0,0,0,15.9-11.77V261.16h37v153.9h-22.65q-7.2,0-9.45-6.75l-2.55-12.3a105.76,105.76,0,0,1-9.9,8.77,58.6,58.6,0,0,1-10.87,6.75,60.39,60.39,0,0,1-12.45,4.35,62.3,62.3,0,0,1-14.33,1.58,54.62,54.62,0,0,1-22.27-4.28,44.62,44.62,0,0,1-16.28-12.07,52.88,52.88,0,0,1-10-18.53,78.32,78.32,0,0,1-3.38-23.62v-97.8Z"/>
        <path class="color" d="M1579.31,415.06V192.16h37v87.9a73.24,73.24,0,0,1,20.7-15.53q11.55-5.76,27-5.77a49.88,49.88,0,0,1,41,20.25q7.58,9.9,11.7,24.45t4.12,33.45a105.43,105.43,0,0,1-4.65,31.95,78.17,78.17,0,0,1-13.27,25.5,61.31,61.31,0,0,1-20.85,16.87,60.69,60.69,0,0,1-27.38,6.08,54.5,54.5,0,0,1-12.9-1.43,44.11,44.11,0,0,1-19.57-10.2,76.54,76.54,0,0,1-7.88-8.17l-1.65,10.35q-.9,3.9-3.07,5.55a9.6,9.6,0,0,1-5.93,1.65Zm72-127.5q-11.55,0-19.72,4.87a57.26,57.26,0,0,0-15.23,13.73v69q6.3,7.8,13.73,10.87a41.7,41.7,0,0,0,16.12,3.08,35.4,35.4,0,0,0,15.15-3.15,29.7,29.7,0,0,0,11.48-9.6,47.43,47.43,0,0,0,7.27-16.28,92.9,92.9,0,0,0,2.55-23.17,103,103,0,0,0-2.17-22.88,44.25,44.25,0,0,0-6.23-15.22,24.58,24.58,0,0,0-9.82-8.55A30.66,30.66,0,0,0,1651.31,287.56Z"/>
        <path class="color" d="M1959,363.91a7.57,7.57,0,0,1,5.7,2.55l15.9,17.25a87.34,87.34,0,0,1-32.48,25.05q-19.27,8.7-46.27,8.7-24.15,0-43.43-8.25a95.69,95.69,0,0,1-32.92-22.95,100.48,100.48,0,0,1-20.93-35.1,131.75,131.75,0,0,1-7.27-44.55q0-24.45,8.1-44.78a101.17,101.17,0,0,1,58-57.9q20.48-8.18,45.23-8.17,24.15,0,42.22,7.72a98.89,98.89,0,0,1,31,20.48l-13.5,18.75a12.27,12.27,0,0,1-3.08,3.15,8.7,8.7,0,0,1-5.17,1.35,11.8,11.8,0,0,1-7-2.7,87.28,87.28,0,0,0-9.15-5.85,74.65,74.65,0,0,0-14-5.85q-8.47-2.7-21.52-2.7a72.85,72.85,0,0,0-28.13,5.32,62.52,62.52,0,0,0-22.05,15.23,70,70,0,0,0-14.4,24.07,92.5,92.5,0,0,0-5.17,31.88q0,18.3,5.17,32.55a71.57,71.57,0,0,0,14,24,59.87,59.87,0,0,0,20.85,14.92,64.45,64.45,0,0,0,25.8,5.18,112.31,112.31,0,0,0,14.92-.9,63.36,63.36,0,0,0,12.3-2.85,54.62,54.62,0,0,0,10.65-5,65.86,65.86,0,0,0,10-7.57,14.25,14.25,0,0,1,3.15-2.18A8.06,8.06,0,0,1,1959,363.91Z"/>
        <path class="color" d="M2074.6,258.76a84.37,84.37,0,0,1,31.28,5.55,67.41,67.41,0,0,1,23.92,15.75,69.72,69.72,0,0,1,15.3,24.9,103.08,103.08,0,0,1,0,65.85,71.26,71.26,0,0,1-15.3,25.05,66.45,66.45,0,0,1-23.92,15.9,91.12,91.12,0,0,1-62.63,0,67,67,0,0,1-24.07-15.9,71.57,71.57,0,0,1-15.45-25.05,101.65,101.65,0,0,1,0-65.85,70,70,0,0,1,15.45-24.9,68,68,0,0,1,24.07-15.75A84.93,84.93,0,0,1,2074.6,258.76Zm0,130.05q19.2,0,28.43-12.9t9.22-37.8q0-24.9-9.22-37.95t-28.43-13.05q-19.5,0-28.8,13.12t-9.3,37.88q0,24.75,9.3,37.72T2074.6,388.81Z"/>
        <path class="color" d="M2179.45,415.06V261.16h21.75q5.7,0,8,2.1t3,7.2l2.25,18.6q8.25-14.25,19.35-22.5a40.72,40.72,0,0,1,24.9-8.25q11.4,0,18.9,5.25l-4.8,27.75a5.72,5.72,0,0,1-1.95,3.82,6.6,6.6,0,0,1-4.05,1.13,25.26,25.26,0,0,1-6.15-1.05,41.16,41.16,0,0,0-10.35-1q-11.55,0-19.8,6.37t-13.95,18.68v95.85Z"/>
        <path class="color" d="M2365.6,258.76a74.79,74.79,0,0,1,26.78,4.65A58.73,58.73,0,0,1,2413.45,277a62.2,62.2,0,0,1,13.8,21.9q5,13,4.95,29.63a55.37,55.37,0,0,1-.37,7,11.11,11.11,0,0,1-1.35,4.35,5.52,5.52,0,0,1-2.63,2.25,11.18,11.18,0,0,1-4.2.68h-95.1q1.65,23.7,12.75,34.8t29.4,11.1a51,51,0,0,0,15.53-2.1,72.8,72.8,0,0,0,11.4-4.65c3.25-1.7,6.09-3.25,8.55-4.65a14.33,14.33,0,0,1,7.12-2.1,8,8,0,0,1,3.9.9,8.62,8.62,0,0,1,2.85,2.55l10.8,13.5a61.47,61.47,0,0,1-13.8,12.07,76.85,76.85,0,0,1-16,7.8,87.33,87.33,0,0,1-16.95,4.13,121.44,121.44,0,0,1-16.73,1.2,82.21,82.21,0,0,1-29.85-5.33,66.56,66.56,0,0,1-24-15.75,73.8,73.8,0,0,1-16.05-25.8q-5.85-15.36-5.85-35.62a85.26,85.26,0,0,1,5.1-29.63A71.28,71.28,0,0,1,2311.38,281a69,69,0,0,1,23.25-16.27Q2348.36,258.76,2365.6,258.76Zm.75,26.55q-16.2,0-25.35,9.15t-11.7,26h69.6a46.25,46.25,0,0,0-2-13.58,31.29,31.29,0,0,0-6-11.17,28.52,28.52,0,0,0-10.2-7.58A34.74,34.74,0,0,0,2366.35,285.31Z"/>
    </g>
    <g>
        <path class="color" d="M1586.9,485.6c4.2-0.7,9.7-1.3,16.7-1.3c8.6,0,14.9,2,18.9,5.6c3.7,3.2,5.9,8.1,5.9,14.1c0,6.1-1.8,10.9-5.2,14.4c-4.6,4.9-12.1,7.4-20.6,7.4c-2.6,0-5-0.1-7-0.6v27h-8.7V485.6z M1595.6,518.1c1.9,0.5,4.3,0.7,7.2,0.7c10.5,0,16.9-5.1,16.9-14.4c0-8.9-6.3-13.2-15.9-13.2c-3.8,0-6.7,0.3-8.2,0.7V518.1z"/>
        <path class="color" d="M1638.2,518.9c0-5.7-0.1-10.6-0.4-15.1h7.7l0.3,9.5h0.4c2.2-6.5,7.5-10.6,13.4-10.6c1,0,1.7,0.1,2.5,0.3v8.3c-0.9-0.2-1.8-0.3-3-0.3c-6.2,0-10.6,4.7-11.8,11.3c-0.2,1.2-0.4,2.6-0.4,4.1v25.8h-8.7V518.9z"/>
        <path class="color" d="M1713.7,527.6c0,17.9-12.4,25.7-24.1,25.7c-13.1,0-23.2-9.6-23.2-24.9c0-16.2,10.6-25.7,24-25.7C1704.3,502.7,1713.7,512.8,1713.7,527.6z M1675.3,528.1c0,10.6,6.1,18.6,14.7,18.6c8.4,0,14.7-7.9,14.7-18.8c0-8.2-4.1-18.6-14.5-18.6C1679.8,509.3,1675.3,518.9,1675.3,528.1z"/>
        <path class="color" d="M1725.7,552.2v-41.7h-6.8v-6.7h6.8v-2.3c0-6.8,1.5-13,5.6-16.9c3.3-3.2,7.7-4.5,11.8-4.5c3.1,0,5.8,0.7,7.5,1.4l-1.2,6.8c-1.3-0.6-3.1-1.1-5.6-1.1c-7.5,0-9.4,6.6-9.4,14v2.6h11.7v6.7h-11.7v41.7H1725.7z"/>
        <path class="color" d="M1757.6,529.6c0.2,11.9,7.8,16.8,16.6,16.8c6.3,0,10.1-1.1,13.4-2.5l1.5,6.3c-3.1,1.4-8.4,3-16.1,3c-14.9,0-23.8-9.8-23.8-24.4s8.6-26.1,22.7-26.1c15.8,0,20,13.9,20,22.8c0,1.8-0.2,3.2-0.3,4.1H1757.6z M1783.4,523.3c0.1-5.6-2.3-14.3-12.2-14.3c-8.9,0-12.8,8.2-13.5,14.3H1783.4z"/>
        <path class="color" d="M1801.6,543.2c2.6,1.7,7.2,3.5,11.6,3.5c6.4,0,9.4-3.2,9.4-7.2c0-4.2-2.5-6.5-9-8.9c-8.7-3.1-12.8-7.9-12.8-13.7c0-7.8,6.3-14.2,16.7-14.2c4.9,0,9.2,1.4,11.9,3l-2.2,6.4c-1.9-1.2-5.4-2.8-9.9-2.8c-5.2,0-8.1,3-8.1,6.6c0,4,2.9,5.8,9.2,8.2c8.4,3.2,12.7,7.4,12.7,14.6c0,8.5-6.6,14.5-18.1,14.5c-5.3,0-10.2-1.3-13.6-3.3L1801.6,543.2z"/>
        <path class="color" d="M1841.2,543.2c2.6,1.7,7.2,3.5,11.6,3.5c6.4,0,9.4-3.2,9.4-7.2c0-4.2-2.5-6.5-9-8.9c-8.7-3.1-12.8-7.9-12.8-13.7c0-7.8,6.3-14.2,16.7-14.2c4.9,0,9.2,1.4,11.9,3l-2.2,6.4c-1.9-1.2-5.4-2.8-9.9-2.8c-5.2,0-8.1,3-8.1,6.6c0,4,2.9,5.8,9.2,8.2c8.4,3.2,12.7,7.4,12.7,14.6c0,8.5-6.6,14.5-18.1,14.5c-5.3,0-10.2-1.3-13.6-3.3L1841.2,543.2z"/>
        <path class="color" d="M1891.8,490.2c0.1,3-2.1,5.4-5.6,5.4c-3.1,0-5.3-2.4-5.3-5.4c0-3.1,2.3-5.5,5.5-5.5C1889.7,484.7,1891.8,487.1,1891.8,490.2z M1882,552.2v-48.4h8.8v48.4H1882z"/>
        <path class="color" d="M1949.2,527.6c0,17.9-12.4,25.7-24.1,25.7c-13.1,0-23.2-9.6-23.2-24.9c0-16.2,10.6-25.7,24-25.7C1939.8,502.7,1949.2,512.8,1949.2,527.6z M1910.8,528.1c0,10.6,6.1,18.6,14.7,18.6c8.4,0,14.7-7.9,14.7-18.8c0-8.2-4.1-18.6-14.5-18.6C1915.3,509.3,1910.8,518.9,1910.8,528.1z"/>
        <path class="color" d="M1960.3,516.9c0-5-0.1-9.1-0.4-13.1h7.8l0.5,8h0.2c2.4-4.6,8-9.1,16-9.1c6.7,0,17.1,4,17.1,20.6v28.9h-8.8v-27.9c0-7.8-2.9-14.3-11.2-14.3c-5.8,0-10.3,4.1-11.8,9c-0.4,1.1-0.6,2.6-0.6,4.1v29.1h-8.8V516.9z"/>
        <path class="color" d="M2042.6,552.2l-0.7-6.1h-0.3c-2.7,3.8-7.9,7.2-14.8,7.2c-9.8,0-14.8-6.9-14.8-13.9c0-11.7,10.4-18.1,29.1-18v-1c0-4-1.1-11.2-11-11.2c-4.5,0-9.2,1.4-12.6,3.6l-2-5.8c4-2.6,9.8-4.3,15.9-4.3c14.8,0,18.4,10.1,18.4,19.8v18.1c0,4.2,0.2,8.3,0.8,11.6H2042.6z M2041.3,527.5c-9.6-0.2-20.5,1.5-20.5,10.9c0,5.7,3.8,8.4,8.3,8.4c6.3,0,10.3-4,11.7-8.1c0.3-0.9,0.5-1.9,0.5-2.8V527.5z"/>
        <path class="color" d="M2064,481.2h8.8v71h-8.8V481.2z"/>
        <path class="color" d="M2144,520.6h-26.2v24.3h29.2v7.3h-37.9v-67.4h36.4v7.3h-27.7v21.3h26.2V520.6z"/>
        <path class="color" d="M2199.4,481.2v58.5c0,4.3,0.1,9.2,0.4,12.5h-7.9l-0.4-8.4h-0.2c-2.7,5.4-8.6,9.5-16.5,9.5c-11.7,0-20.7-9.9-20.7-24.6c-0.1-16.1,9.9-26,21.7-26c7.4,0,12.4,3.5,14.6,7.4h0.2v-28.9H2199.4z M2190.6,523.5c0-1.1-0.1-2.6-0.4-3.7c-1.3-5.6-6.1-10.2-12.7-10.2c-9.1,0-14.5,8-14.5,18.7c0,9.8,4.8,17.9,14.3,17.9c5.9,0,11.3-3.9,12.9-10.5c0.3-1.2,0.4-2.4,0.4-3.8V523.5z"/>
        <path class="color" d="M2223.8,490.2c0.1,3-2.1,5.4-5.6,5.4c-3.1,0-5.3-2.4-5.3-5.4c0-3.1,2.3-5.5,5.5-5.5C2221.7,484.7,2223.8,487.1,2223.8,490.2z M2214,552.2v-48.4h8.8v48.4H2214z"/>
        <path class="color" d="M2248,489.9v13.9h12.6v6.7H2248v26.1c0,6,1.7,9.4,6.6,9.4c2.3,0,4-0.3,5.1-0.6l0.4,6.6c-1.7,0.7-4.4,1.2-7.8,1.2c-4.1,0-7.4-1.3-9.5-3.7c-2.5-2.6-3.4-6.9-3.4-12.6v-26.4h-7.5v-6.7h7.5v-11.6L2248,489.9z"/>
        <path class="color" d="M2280.3,490.2c0.1,3-2.1,5.4-5.6,5.4c-3.1,0-5.3-2.4-5.3-5.4c0-3.1,2.3-5.5,5.5-5.5C2278.2,484.7,2280.3,487.1,2280.3,490.2z M2270.5,552.2v-48.4h8.8v48.4H2270.5z"/>
        <path class="color" d="M2337.7,527.6c0,17.9-12.4,25.7-24.1,25.7c-13.1,0-23.2-9.6-23.2-24.9c0-16.2,10.6-25.7,24-25.7C2328.3,502.7,2337.7,512.8,2337.7,527.6z M2299.3,528.1c0,10.6,6.1,18.6,14.7,18.6c8.4,0,14.7-7.9,14.7-18.8c0-8.2-4.1-18.6-14.5-18.6S2299.3,518.9,2299.3,528.1z"/>
        <path class="color" d="M2348.8,516.9c0-5-0.1-9.1-0.4-13.1h7.8l0.5,8h0.2c2.4-4.6,8-9.1,16-9.1c6.7,0,17.1,4,17.1,20.6v28.9h-8.8v-27.9c0-7.8-2.9-14.3-11.2-14.3c-5.8,0-10.3,4.1-11.8,9c-0.4,1.1-0.6,2.6-0.6,4.1v29.1h-8.8V516.9z"/>
    </g>
</svg>