<svg xmlns="http://www.w3.org/2000/svg" viewBox="0 0 3268.76 890.87" preserveAspectRatio="xMidYMid meet" role="img" aria-labelledby="firehubCoreProfessionalLogo">
  <title id="firehubCoreProfessionalLogo">FireHub Core Professional Logo</title>
  <style>
    .color {fill: #d50000;}
  </style>
  <g class="color">
    <path d="M878.8,456.99c-11.2,29.9-51.3,31.3-62.7,1h-157.4l-4,31h94.5l38.5,33.5c29.3-16.9,61,15.1,45.6,44.5-17.8,34.1-71.3,11.2-59.1-26.1-11.4-9.8-21.7-21.2-34.2-29.7h-90.7l-13.6,30.8h68.5l60.1,60.8c37.9-9.2,41.3,50.9,4,47.1-15.8-1.6-21.8-16-19.6-30.4l-52.7-54.3-73.6-.2-18.5,25.4,90.9,92.2c11.7-3.2,19.8-3.8,30.6,2.3,38.4,21.5.2,83.7-36.7,53.7-13-10.6-14.2-25.3-9.5-40.5l-91.2-92-26.2,19.6v76.6l52.3,51.8c8.2,2.1,13-.7,20.9,4.1,21.1,12.7,11.2,47.8-15.7,44.7-10.5-1.2-20.3-12-20.6-22.4-.1-3.6,2.2-7,0-10l-59-59v-72.5l-31,12.7v95.8l31.2,35.3c9.4-.9,16.4-2,25.1,2.4,23.5,11.6,23.7,47.2.3,59-24.9,12.6-50.3-8.9-46.6-35.6.5-3.5,5.3-10.8,4.5-12.6-5-6.1-36.5-36.5-36.5-41.5v-97.5c-6.2.8-12.3,2.3-18.5,3-2.9.3-10.4-1.2-11.4,1.7v162.9c.3,2.4,9.5,6.6,12.4,9.5,12.7,12.8,11.2,36.9-2.5,48.5-34.1,29-78-25.2-37.8-53.8,2.1-1.5,5.4-1.6,5.8-4.2v-164.5l-31-3v100.5l-34.5,37.5c.4,5.8,4.2,10.9,4.5,17.5,1.4,25.2-23.6,43.3-46.7,31.7-26.3-13.3-22-54.1,6.2-61.1,7-1.8,11.6-.5,18.4-.5l30.8-35.2v-95.7l-30.8-12.6v71.5c-6.4,8.9-59.1,55.5-59.7,61.1-.5,4.4,1.6,9.1,0,15.2-5.1,19.7-35.1,22.3-43.8,3.2-8.9-19.5,7.3-38.6,28-35l54.1-53.9.2-74.4-26.3-21.5-91,91.8c-1.4,3,1.2,6.1,1.5,9.5,3.9,45-50.2,52-62.2,17.2-6.8-19.5,6.5-41,27-43.5,7-.8,11.8,2,18.2,2.3l90.9-93.2-18.6-24.3-74.6.2-52.2,53.7c7.5,24.7-25,42.7-41,23-15.1-18.7,2-44.9,24.8-39.2l60.1-60.8h69.5l-13.6-30.9h-92.8c-2.1.3-3.9,2.1-5.6,3.3-3.4,2.5-28.8,24.6-29.4,26.5-.3.9,1.6,7.8,1.5,10.6-.5,33.4-45.9,44.8-60.9,14.8-11.8-23.5,5.8-50.8,32.2-48.2,5,.5,12.1,5,15.6,3.4l36.5-32.5h97.5l-4-31H63.5c-16.2,40.3-74.4,20.8-61.7-21.5,8.9-29.6,51-30.5,61-1.5h171c-.6-10.5,1.7-20.7,3-31h-94.5l-39.5-34.5c-3.1-1.4-7.2,2.2-10.8,3.2-30,8.4-53.1-29.1-32.6-53.6,16.8-20,51.3-11.7,56,13.9.9,4.7-.8,16.4,0,18s16.7,15.2,19.5,17.5,14.7,12.8,16.7,13.3h89.6l11.6-30.8h-65.5l-60-62c-3.1-3-6.8-.7-11-1-18.6-1.3-28.3-24.6-16.5-39.5,13.8-17.4,42.1-7.3,42.1,15,0,3.3-1.9,6.7-.6,9.5l54.2,54.8h69.6l23.6-30.2-90-91.2c-11.4,3-20.5,4.4-31.3-1.7-21.3-12.1-21.1-44.7,0-56.6,22.3-12.6,48.4,2.9,48.4,28.3s-2.3,9.6-1.6,14.5l89.2,89.9,2.3.7,23.8-20.2v-72.6l-51.3-51.8c-6.1-1.3-9.6.9-16.5-1.5-23.9-8.2-19.5-45.6,6.4-46.5,17.7-.6,27.3,13.8,24.5,30.5l57.5,58.5,1.5,71,31-12v-28c7.4,4.6,36,45.9,30.9,51.9-76.5,13.5-134.6,76.2-147.4,152-23.5,138.5,112,256.1,245,205,11,6.1,22.2,11.3,34.6,14l-13.9-23.4c21.7-13.5,41.1-28.8,56.9-49.1,89.8-115.9,19.8-284.6-125-301-10.6-11.2-22.3-21.2-35-30l5.1-.9,1-3V65.39c-.5-2.5-9.1-6-12.1-8.9-26.3-26.1,6.7-70.8,39-52,18.4,10.7,22.2,38.8,6.1,53-2.8,2.4-10.5,5.4-11,8v162.5c2.8.1,5.7-.3,8.5,0,5.5.5,14.4,3,19.1,3s2.7,0,3.3-1.6c-1.3-7-1.1-14.8-.9-22,0-2.8,1-5.3,1.1-7.9.5-23-.5-46,0-69l34.9-39.2c.4-1.6-5-9.4-5.7-13-6.6-39.1,45.1-55.6,60.9-21.9,12.2,25.8-9.2,50.9-36.2,47.2-11.1,12.2-23.3,23.7-33,37v95.9l31,11.6v-65.5c0-.5,2.4-4.9,3-5.8l56-55.4c0-11.1-.5-20.4,9.2-27.8,23.8-18.1,51.5,15.5,31.9,35.9-7.1,7.4-16.7,7.8-26,7l-51.6,52.4-.5,72.4,26.4,19.6,89.2-89.9c-1.1-8.2-3.3-13.5-1.3-22.2,6.9-29.8,47.7-34.1,60.2-6.8,10.8,23.5-7.1,49.7-33,47-2.9-.3-8.6-3.3-10.5-2.5l-88.8,91,23.5,30.3h68.6l52.2-54.9c-1.7-12.3,0-24,11.8-30.1,23.4-12.1,44.8,15.6,30.1,36.1-7.1,10-16.3,8.4-27,10l-57.9,62.1h-65.5l9.8,28.7,1.9,2.1h88.6l33.2-29.9c-7.1-26.5,15.4-52.2,42.8-41.9,34.6,13.1,21.4,68.4-15.6,63.6-4.1-.5-12.5-5.3-14.7-4.3l-37.5,34.5h-91c-.4,0-1.7,1.6-1.5,2.4l3,28.6h157.5c12.4-29,52.2-28.2,62.5,2v20h0v.2ZM442.6,22.19c-13.1,3-8.8,26.4,7.4,21.3,11.9-3.7,8.1-24.9-7.4-21.3ZM549.3,59.49c-16,0-14.9,25.8,2.8,22.3,11.2-2.2,10.9-22.3-2.8-22.3ZM191.5,184.59c9.7-9.1-1.9-25.4-13.6-18.1-14.1,8.8,1.7,29.3,13.6,18.1ZM703.6,165.19c-9,2-10.4,19.5,1.5,22.1,17,3.7,18.8-26.8-1.5-22.1ZM81.6,329.19c-13.9,2.6-10.7,24.5,3.7,22.8,15.1-1.8,11.7-25.7-3.7-22.8ZM802.6,329.19c-17.7,2.6-8.6,30.1,7.2,21.2,11.3-6.4,4.4-23-7.2-21.2ZM24.2,438.29c-11.5,12.1,9.3,30.2,17.9,14.4,6.7-12.3-8.7-24-17.9-14.4ZM839.2,438.29c-9,9.4,1.8,26.1,14,18.5,14.9-9.3-2.6-30.4-14-18.5ZM82.6,539.19c-16.5,2.7-9.3,30,7,22,11.8-5.8,5.2-24-7-22ZM802.6,539.19c-16.8,3.3-6.8,31.1,8.6,21.6,11-6.8,3.6-24-8.6-21.6ZM708.5,701.29c-12,.7-14.8,19-2.7,22.2,17.8,4.7,19.1-23.2,2.7-22.2ZM179.6,702.19c-10.3,2.4-10.6,20,1.9,21.7,17.6,2.5,17.6-26.2-1.9-21.7ZM340.6,803.09c-14.9,1.7-12.2,24.5,2.6,22.8,14.3-1.7,11.9-24.4-2.6-22.8ZM549.6,803.09c-13.7,1.5-12.8,23.3,1.7,22.9,15.3-.5,13.2-24.5-1.7-22.9ZM445.5,845.29c-14,.2-14.4,24.2.7,23.6,14.3-.5,14.2-23.8-.7-23.6Z"/>
    <path d="M545.9,386.99c16.5,6.6,27.7,27.4,29,44.5,4.9,63.9-80.8,109.6-54.3,174.3,1.5,3.7,4.2,6.5,5.3,10.2-18.9-8.5-33.9-26.2-39.3-46.2-15.7-58.5,22.6-110.4-16.3-168.7-3-4.5-19.2-24.4-22.9-26.1-.4-.2-1.6-.2-1.5.5,11.2,16.3,20.1,35.3,22.9,55.1,5.5,39.6-11.6,52.3-23.4,84.4-6.7,18.2-6.6,38.3,1.5,56-28.8-12.7-43.8-38.9-47-69.5-1.7-16.3.5-32.6-1.1-48.9-.1-1-.4-4.7-1.9-4.6-4.5,14.5-10,28.8-12.7,43.8-5.1,28.2-4,53.3,7.8,79.5,7.7,17.2,19.1,32.1,30.9,46.6-59.2-15.6-96.9-69-90-130.5,5.9-52,40.8-87.6,65.2-130.8,20.9-37.2,40.9-87.8,12.8-126.7,46.2,22.4,80.9,70.2,89.7,120.8,3.8,21.7,1.4,41.8,3.3,62.7,2.3,24.6,28.9,40.8,45,19,10.4-14.1,3.4-31.4-3-45.5h0v.1Z"/>
    <path d="M525.8,590.99v-20.5c0-4.5,14.2-13.6,18-17,76.3-69.2,59.1-194.9-31.3-242.7-3.5-1.8-16.7-6.4-18.4-8.1-1.4-1.4-3.9-8.5-5.5-11-2.8-4.6-5.9-9.1-8.8-13.7,60.2,12,109.4,59.7,126.3,118.2,19.2,66.7-3.8,137.9-57.8,180.7-6.6,5.2-14.7,11-22.5,14h0v.1Z"/>
    <path d="M415.8,277.99l-4.5,21c-90.7,25.3-136.3,124.4-95.4,210.4,2,4.3,6.8,9.9,8.3,13.7s1.7,9.5,3.1,13.9c4.7,15,12.1,29,21.5,41.5l-1.5.5c-50.9-40-76.3-103.7-64-168,12.4-65.2,66.3-122.3,132.5-133h0Z"/>
    <path d="M364.5,47.29c7.6,7.7,10.6,19.2,9.1,29.9-.8,5.3-4.2,9.2-4.6,14l35.5,39.2c-2,27.6,1.5,55,.4,82.5l-22-11.7-.5-62.3-32.5-35.5c-2.8-1.6-5.7.5-8.4.4-10.8-.5-22.7-7.5-27.8-17.2-17.2-32.9,25-65.2,50.8-39.3h0ZM341.5,59.29c-14.9.9-14,25.3,2.8,22.6,12.6-2,11.1-23.4-2.8-22.6Z"/>
  </g>
  <g class="color">
    <path d="M1119.6,289.79v42.8h-128.2v85.6h108.2v43h-108.2v117.8h-54.2v-289.2h182.4Z"/>
    <path d="M1213.79,313.99c0,4.27-.87,8.27-2.6,12-1.73,3.73-4.04,7-6.9,9.8-2.87,2.8-6.23,5.03-10.1,6.7-3.87,1.67-8,2.5-12.4,2.5s-8.3-.83-12.1-2.5c-3.8-1.67-7.1-3.9-9.9-6.7-2.8-2.8-5.04-6.07-6.7-9.8-1.67-3.73-2.5-7.73-2.5-12s.83-8.53,2.5-12.4c1.66-3.87,3.9-7.2,6.7-10,2.8-2.8,6.1-5.03,9.9-6.7,3.8-1.67,7.83-2.5,12.1-2.5s8.53.83,12.4,2.5c3.87,1.67,7.23,3.9,10.1,6.7,2.87,2.8,5.17,6.13,6.9,10,1.73,3.87,2.6,8,2.6,12.4ZM1206.39,373.79v205.2h-49.4v-205.2h49.4Z"/>
    <path d="M1256.99,578.99v-205.2h29c5.06,0,8.6.93,10.6,2.8,2,1.87,3.33,5.07,4,9.6l3,24.8c7.33-12.67,15.93-22.67,25.8-30,9.87-7.33,20.93-11,33.2-11,10.13,0,18.53,2.33,25.2,7l-6.4,37c-.4,2.4-1.27,4.1-2.6,5.1-1.33,1-3.13,1.5-5.4,1.5-2,0-4.73-.47-8.2-1.4-3.47-.93-8.07-1.4-13.8-1.4-10.27,0-19.07,2.83-26.4,8.5-7.34,5.67-13.54,13.97-18.6,24.9v127.8h-49.4Z"/>
    <path d="M1499.99,370.59c12.93,0,24.83,2.07,35.7,6.2,10.87,4.13,20.23,10.17,28.1,18.1,7.87,7.93,14,17.67,18.4,29.2,4.4,11.53,6.6,24.7,6.6,39.5,0,3.73-.17,6.83-.5,9.3-.33,2.47-.94,4.4-1.8,5.8-.87,1.4-2.03,2.4-3.5,3-1.47.6-3.33.9-5.6.9h-126.8c1.47,21.07,7.13,36.53,17,46.4,9.87,9.87,22.93,14.8,39.2,14.8,8,0,14.9-.93,20.7-2.8,5.8-1.87,10.87-3.93,15.2-6.2,4.33-2.27,8.13-4.33,11.4-6.2,3.27-1.87,6.43-2.8,9.5-2.8,2,0,3.73.4,5.2,1.2,1.46.8,2.73,1.93,3.8,3.4l14.4,18c-5.47,6.4-11.6,11.77-18.4,16.1-6.8,4.33-13.9,7.8-21.3,10.4-7.4,2.6-14.94,4.43-22.6,5.5-7.67,1.07-15.1,1.6-22.3,1.6-14.27,0-27.54-2.37-39.8-7.1-12.27-4.73-22.93-11.73-32-21-9.07-9.27-16.2-20.73-21.4-34.4-5.2-13.67-7.8-29.5-7.8-47.5,0-14,2.27-27.17,6.8-39.5,4.53-12.33,11.03-23.07,19.5-32.2,8.46-9.13,18.8-16.37,31-21.7,12.2-5.33,25.96-8,41.3-8ZM1500.99,405.99c-14.4,0-25.67,4.07-33.8,12.2-8.13,8.13-13.34,19.67-15.6,34.6h92.8c0-6.4-.87-12.43-2.6-18.1-1.73-5.67-4.4-10.63-8-14.9-3.6-4.27-8.13-7.63-13.6-10.1-5.47-2.47-11.87-3.7-19.2-3.7Z"/>
    <path d="M1870.58,578.99h-54.2v-126.4h-135.6v126.4h-54.2v-289.2h54.2v124.4h135.6v-124.4h54.2v289.2Z"/>
    <path d="M1966.18,373.79v130.4c0,12.53,2.9,22.23,8.7,29.1,5.8,6.87,14.5,10.3,26.1,10.3,8.53,0,16.53-1.9,24-5.7,7.46-3.8,14.53-9.03,21.2-15.7v-148.4h49.4v205.2h-30.2c-6.4,0-10.6-3-12.6-9l-3.4-16.4c-4.27,4.27-8.67,8.17-13.2,11.7-4.54,3.53-9.37,6.53-14.5,9-5.13,2.47-10.67,4.4-16.6,5.8-5.94,1.4-12.3,2.1-19.1,2.1-11.2,0-21.1-1.9-29.7-5.7s-15.83-9.17-21.7-16.1c-5.87-6.93-10.3-15.17-13.3-24.7-3-9.53-4.5-20.03-4.5-31.5v-130.4h49.4Z"/>
    <path d="M2143.78,578.99v-297.2h49.4v117.2c8.13-8.67,17.33-15.57,27.6-20.7,10.27-5.13,22.27-7.7,36-7.7,11.2,0,21.43,2.3,30.7,6.9,9.27,4.6,17.27,11.3,24,20.1,6.73,8.8,11.93,19.67,15.6,32.6,3.67,12.93,5.5,27.8,5.5,44.6,0,15.33-2.07,29.53-6.2,42.6-4.13,13.07-10.03,24.4-17.7,34-7.67,9.6-16.93,17.1-27.8,22.5-10.87,5.4-23.03,8.1-36.5,8.1-6.27,0-12-.63-17.2-1.9s-9.93-3.03-14.2-5.3c-4.27-2.27-8.23-5.03-11.9-8.3-3.67-3.27-7.17-6.9-10.5-10.9l-2.2,13.8c-.8,3.47-2.17,5.93-4.1,7.4-1.93,1.47-4.57,2.2-7.9,2.2h-32.6ZM2239.78,408.99c-10.27,0-19.03,2.17-26.3,6.5-7.27,4.33-14.04,10.43-20.3,18.3v92c5.6,6.93,11.7,11.77,18.3,14.5,6.6,2.73,13.77,4.1,21.5,4.1s14.2-1.4,20.2-4.2c6-2.8,11.1-7.07,15.3-12.8,4.2-5.73,7.43-12.96,9.7-21.7,2.27-8.73,3.4-19.03,3.4-30.9s-.97-22.17-2.9-30.5c-1.93-8.33-4.7-15.1-8.3-20.3-3.6-5.2-7.97-9-13.1-11.4-5.13-2.4-10.97-3.6-17.5-3.6Z"/>
    <path d="M2639.58,510.79c2.93,0,5.46,1.13,7.6,3.4l21.2,23c-11.73,14.53-26.17,25.67-43.3,33.4-17.13,7.73-37.7,11.6-61.7,11.6-21.47,0-40.77-3.67-57.9-11-17.13-7.33-31.77-17.53-43.9-30.6-12.13-13.07-21.44-28.67-27.9-46.8-6.47-18.13-9.7-37.93-9.7-59.4s3.6-41.63,10.8-59.7c7.2-18.07,17.33-33.63,30.4-46.7,13.07-13.07,28.7-23.23,46.9-30.5,18.2-7.27,38.3-10.9,60.3-10.9s40.23,3.43,56.3,10.3c16.07,6.87,29.83,15.97,41.3,27.3l-18,25c-1.07,1.6-2.44,3-4.1,4.2-1.67,1.2-3.97,1.8-6.9,1.8s-6.2-1.2-9.4-3.6c-3.2-2.4-7.27-5-12.2-7.8-4.93-2.8-11.17-5.4-18.7-7.8-7.54-2.4-17.1-3.6-28.7-3.6-13.6,0-26.1,2.37-37.5,7.1-11.4,4.73-21.2,11.5-29.4,20.3-8.2,8.8-14.6,19.5-19.2,32.1-4.6,12.6-6.9,26.77-6.9,42.5s2.3,30.73,6.9,43.4c4.6,12.67,10.83,23.33,18.7,32,7.87,8.67,17.13,15.3,27.8,19.9,10.67,4.6,22.13,6.9,34.4,6.9,7.33,0,13.97-.4,19.9-1.2,5.93-.8,11.4-2.07,16.4-3.8,5-1.73,9.73-3.97,14.2-6.7,4.47-2.73,8.9-6.1,13.3-10.1,1.33-1.2,2.73-2.17,4.2-2.9,1.47-.73,3.07-1.1,4.8-1.1Z"/>
    <path d="M2788.57,370.59c15.33,0,29.23,2.47,41.7,7.4,12.47,4.93,23.1,11.93,31.9,21,8.8,9.07,15.6,20.13,20.4,33.2,4.8,13.07,7.2,27.67,7.2,43.8s-2.4,30.93-7.2,44c-4.8,13.07-11.6,24.2-20.4,33.4-8.8,9.2-19.43,16.27-31.9,21.2-12.47,4.93-26.37,7.4-41.7,7.4s-29.27-2.47-41.8-7.4c-12.53-4.93-23.23-12-32.1-21.2-8.87-9.2-15.73-20.33-20.6-33.4-4.87-13.07-7.3-27.73-7.3-44s2.43-30.73,7.3-43.8c4.87-13.07,11.73-24.13,20.6-33.2,8.87-9.07,19.57-16.07,32.1-21,12.53-4.93,26.47-7.4,41.8-7.4ZM2788.57,543.99c17.06,0,29.7-5.73,37.9-17.2,8.2-11.47,12.3-28.27,12.3-50.4s-4.1-39-12.3-50.6c-8.2-11.6-20.84-17.4-37.9-17.4s-30.13,5.83-38.4,17.5c-8.27,11.67-12.4,28.5-12.4,50.5s4.13,38.77,12.4,50.3c8.27,11.53,21.07,17.3,38.4,17.3Z"/>
    <path d="M2923.17,578.99v-205.2h29c5.06,0,8.6.93,10.6,2.8,2,1.87,3.33,5.07,4,9.6l3,24.8c7.33-12.67,15.93-22.67,25.8-30,9.87-7.33,20.93-11,33.2-11,10.13,0,18.53,2.33,25.2,7l-6.4,37c-.4,2.4-1.27,4.1-2.6,5.1-1.33,1-3.13,1.5-5.4,1.5-2,0-4.73-.47-8.2-1.4-3.47-.93-8.07-1.4-13.8-1.4-10.27,0-19.07,2.83-26.4,8.5-7.34,5.67-13.54,13.97-18.6,24.9v127.8h-49.4Z"/>
    <path d="M3166.17,370.59c12.93,0,24.83,2.07,35.7,6.2,10.87,4.13,20.23,10.17,28.1,18.1,7.87,7.93,14,17.67,18.4,29.2,4.4,11.53,6.6,24.7,6.6,39.5,0,3.73-.17,6.83-.5,9.3-.33,2.47-.94,4.4-1.8,5.8-.87,1.4-2.03,2.4-3.5,3-1.47.6-3.33.9-5.6.9h-126.8c1.47,21.07,7.13,36.53,17,46.4,9.87,9.87,22.93,14.8,39.2,14.8,8,0,14.9-.93,20.7-2.8,5.8-1.87,10.87-3.93,15.2-6.2,4.33-2.27,8.13-4.33,11.4-6.2,3.27-1.87,6.43-2.8,9.5-2.8,2,0,3.73.4,5.2,1.2,1.46.8,2.73,1.93,3.8,3.4l14.4,18c-5.47,6.4-11.6,11.77-18.4,16.1-6.8,4.33-13.9,7.8-21.3,10.4-7.4,2.6-14.94,4.43-22.6,5.5-7.67,1.07-15.1,1.6-22.3,1.6-14.27,0-27.54-2.37-39.8-7.1-12.27-4.73-22.93-11.73-32-21-9.07-9.27-16.2-20.73-21.4-34.4-5.2-13.67-7.8-29.5-7.8-47.5,0-14,2.27-27.17,6.8-39.5,4.53-12.33,11.03-23.07,19.5-32.2,8.46-9.13,18.8-16.37,31-21.7,12.2-5.33,25.96-8,41.3-8ZM3167.17,405.99c-14.4,0-25.67,4.07-33.8,12.2-8.13,8.13-13.34,19.67-15.6,34.6h92.8c0-6.4-.87-12.43-2.6-18.1-1.73-5.67-4.4-10.63-8-14.9-3.6-4.27-8.13-7.63-13.6-10.1-5.47-2.47-11.87-3.7-19.2-3.7Z"/>
  </g>
  <g class="color">
    <path d="M1958.97,762.81v40.2h-14.48v-107.47h31.73c6.8,0,12.71.79,17.74,2.36,5.02,1.58,9.19,3.81,12.49,6.71,3.3,2.9,5.76,6.4,7.39,10.5,1.62,4.1,2.44,8.68,2.44,13.73s-.88,9.58-2.62,13.72c-1.75,4.15-4.31,7.73-7.69,10.73s-7.56,5.34-12.56,7.01c-5,1.68-10.73,2.51-17.17,2.51h-17.25ZM1958.97,751.26h17.25c4.15,0,7.81-.55,10.99-1.65,3.17-1.1,5.84-2.64,7.99-4.61,2.15-1.97,3.77-4.34,4.88-7.09,1.1-2.75,1.65-5.78,1.65-9.08,0-6.85-2.11-12.2-6.34-16.05-4.23-3.85-10.61-5.78-19.16-5.78h-17.25v44.25Z"/>
    <path d="M2030.59,803.01v-75.97h7.65c1.45,0,2.45.28,3,.82.55.55.92,1.5,1.12,2.85l.9,11.85c2.6-5.3,5.81-9.44,9.64-12.41,3.83-2.97,8.31-4.46,13.46-4.46,2.1,0,4,.24,5.7.71,1.7.48,3.27,1.14,4.73,1.99l-1.73,9.97c-.35,1.25-1.12,1.88-2.33,1.88-.7,0-1.78-.24-3.22-.71-1.45-.47-3.48-.71-6.08-.71-4.65,0-8.54,1.35-11.66,4.05-3.13,2.7-5.74,6.63-7.84,11.78v48.38h-13.35Z"/>
    <path d="M2119.84,725.84c5.55,0,10.56.93,15.04,2.77,4.47,1.85,8.27,4.48,11.4,7.88,3.12,3.4,5.52,7.51,7.2,12.34,1.67,4.83,2.51,10.21,2.51,16.16s-.84,11.4-2.51,16.2c-1.68,4.8-4.08,8.9-7.2,12.3-3.13,3.4-6.93,6.01-11.4,7.84-4.48,1.82-9.49,2.74-15.04,2.74s-10.56-.91-15.04-2.74-8.29-4.44-11.44-7.84c-3.15-3.4-5.58-7.5-7.27-12.3-1.7-4.8-2.55-10.2-2.55-16.2s.85-11.34,2.55-16.16c1.7-4.82,4.12-8.94,7.27-12.34,3.15-3.4,6.96-6.02,11.44-7.88,4.47-1.85,9.49-2.77,15.04-2.77ZM2119.84,793.64c7.5,0,13.1-2.51,16.8-7.54,3.7-5.03,5.55-12.04,5.55-21.04s-1.85-16.1-5.55-21.15c-3.7-5.05-9.3-7.58-16.8-7.58-3.8,0-7.1.65-9.9,1.95-2.8,1.3-5.14,3.18-7.01,5.62-1.88,2.45-3.28,5.46-4.2,9.04-.93,3.58-1.39,7.61-1.39,12.11s.46,8.53,1.39,12.08c.92,3.55,2.32,6.54,4.2,8.96,1.88,2.43,4.21,4.29,7.01,5.59,2.8,1.3,6.1,1.95,9.9,1.95Z"/>
    <path d="M2173.54,803.01v-64.58l-8.4-.97c-1.05-.25-1.91-.64-2.59-1.16-.68-.52-1.01-1.29-1.01-2.29v-5.47h12v-7.35c0-4.35.61-8.21,1.84-11.59,1.22-3.38,2.97-6.23,5.25-8.55,2.28-2.32,5.01-4.09,8.21-5.29,3.2-1.2,6.8-1.8,10.8-1.8,3.4,0,6.55.5,9.45,1.5l-.3,6.67c-.05,1-.48,1.6-1.28,1.8-.8.2-1.92.3-3.38.3h-2.33c-2.3,0-4.39.3-6.26.9s-3.49,1.58-4.84,2.92c-1.35,1.35-2.39,3.13-3.11,5.33-.73,2.2-1.09,4.93-1.09,8.17v6.98h21.98v9.67h-21.53v64.8h-13.42Z"/>
    <path d="M2249.21,725.84c4.55,0,8.75.76,12.6,2.29,3.85,1.53,7.17,3.73,9.97,6.6,2.8,2.88,4.99,6.42,6.56,10.65,1.58,4.23,2.36,9.04,2.36,14.44,0,2.1-.23,3.5-.68,4.2-.45.7-1.3,1.05-2.55,1.05h-50.55c.1,4.8.75,8.98,1.95,12.53,1.2,3.55,2.85,6.51,4.95,8.89,2.1,2.38,4.6,4.15,7.5,5.32,2.9,1.18,6.15,1.76,9.75,1.76,3.35,0,6.24-.39,8.66-1.16,2.42-.77,4.51-1.61,6.26-2.51,1.75-.9,3.21-1.74,4.39-2.51,1.17-.77,2.19-1.16,3.04-1.16,1.1,0,1.95.42,2.55,1.27l3.75,4.88c-1.65,2-3.63,3.74-5.92,5.21-2.3,1.48-4.76,2.69-7.39,3.64-2.62.95-5.34,1.66-8.14,2.14-2.8.47-5.58.71-8.32.71-5.25,0-10.09-.89-14.51-2.66s-8.25-4.38-11.48-7.8c-3.22-3.42-5.74-7.66-7.54-12.71-1.8-5.05-2.7-10.85-2.7-17.4,0-5.3.81-10.25,2.44-14.85,1.62-4.6,3.96-8.59,7.01-11.96,3.05-3.38,6.77-6.02,11.17-7.95,4.4-1.92,9.35-2.89,14.85-2.89ZM2249.51,735.66c-6.45,0-11.53,1.86-15.23,5.59-3.7,3.73-6,8.89-6.9,15.49h41.33c0-3.1-.43-5.94-1.28-8.51-.85-2.58-2.1-4.8-3.75-6.68s-3.66-3.32-6.04-4.35c-2.38-1.02-5.09-1.54-8.14-1.54Z"/>
    <path d="M2339.29,739.56c-.6,1.1-1.53,1.65-2.78,1.65-.75,0-1.6-.27-2.55-.83-.95-.55-2.11-1.16-3.49-1.84-1.38-.67-3.01-1.3-4.91-1.88-1.9-.57-4.15-.86-6.75-.86-2.25,0-4.27.29-6.07.86-1.8.58-3.34,1.36-4.61,2.36-1.27,1-2.25,2.16-2.92,3.49-.67,1.33-1.01,2.76-1.01,4.31,0,1.95.56,3.58,1.69,4.88,1.12,1.3,2.61,2.43,4.46,3.38,1.85.95,3.95,1.79,6.3,2.51,2.35.72,4.76,1.5,7.24,2.32,2.48.83,4.89,1.74,7.24,2.74,2.35,1,4.45,2.25,6.3,3.75,1.85,1.5,3.34,3.34,4.46,5.51,1.12,2.18,1.69,4.79,1.69,7.84,0,3.5-.62,6.74-1.88,9.71s-3.1,5.55-5.55,7.72c-2.45,2.17-5.45,3.89-9,5.14-3.55,1.25-7.65,1.88-12.3,1.88-5.3,0-10.1-.86-14.4-2.59-4.3-1.72-7.95-3.94-10.95-6.64l3.15-5.1c.4-.65.87-1.15,1.42-1.5.55-.35,1.28-.53,2.18-.53s1.85.35,2.85,1.05c1,.7,2.21,1.47,3.64,2.32,1.42.85,3.15,1.63,5.17,2.33,2.03.7,4.56,1.05,7.61,1.05,2.6,0,4.88-.34,6.83-1.01,1.95-.68,3.57-1.59,4.88-2.74,1.3-1.15,2.26-2.47,2.89-3.97.62-1.5.94-3.1.94-4.8,0-2.1-.56-3.84-1.69-5.21-1.12-1.37-2.61-2.55-4.46-3.52-1.85-.98-3.96-1.83-6.34-2.55-2.38-.72-4.8-1.49-7.28-2.29-2.47-.8-4.9-1.71-7.28-2.74-2.38-1.02-4.49-2.31-6.34-3.86-1.85-1.55-3.34-3.46-4.46-5.74-1.12-2.27-1.69-5.04-1.69-8.29,0-2.9.6-5.69,1.8-8.36,1.2-2.67,2.95-5.03,5.25-7.05,2.3-2.03,5.12-3.64,8.48-4.84,3.35-1.2,7.17-1.8,11.47-1.8,5,0,9.49.79,13.46,2.36,3.97,1.58,7.41,3.74,10.31,6.49l-3,4.88Z"/>
    <path d="M2402.43,739.56c-.6,1.1-1.53,1.65-2.78,1.65-.75,0-1.6-.27-2.55-.83-.95-.55-2.11-1.16-3.49-1.84-1.38-.67-3.01-1.3-4.91-1.88-1.9-.57-4.15-.86-6.75-.86-2.25,0-4.27.29-6.07.86-1.8.58-3.34,1.36-4.61,2.36-1.27,1-2.25,2.16-2.92,3.49-.67,1.33-1.01,2.76-1.01,4.31,0,1.95.56,3.58,1.69,4.88,1.12,1.3,2.61,2.43,4.46,3.38,1.85.95,3.95,1.79,6.3,2.51,2.35.72,4.76,1.5,7.24,2.32,2.48.83,4.89,1.74,7.24,2.74,2.35,1,4.45,2.25,6.3,3.75,1.85,1.5,3.34,3.34,4.46,5.51,1.12,2.18,1.69,4.79,1.69,7.84,0,3.5-.62,6.74-1.88,9.71s-3.1,5.55-5.55,7.72c-2.45,2.17-5.45,3.89-9,5.14-3.55,1.25-7.65,1.88-12.3,1.88-5.3,0-10.1-.86-14.4-2.59-4.3-1.72-7.95-3.94-10.95-6.64l3.15-5.1c.4-.65.87-1.15,1.42-1.5.55-.35,1.28-.53,2.18-.53s1.85.35,2.85,1.05c1,.7,2.21,1.47,3.64,2.32,1.42.85,3.15,1.63,5.17,2.33,2.03.7,4.56,1.05,7.61,1.05,2.6,0,4.88-.34,6.83-1.01,1.95-.68,3.57-1.59,4.88-2.74,1.3-1.15,2.26-2.47,2.89-3.97.62-1.5.94-3.1.94-4.8,0-2.1-.56-3.84-1.69-5.21-1.12-1.37-2.61-2.55-4.46-3.52-1.85-.98-3.96-1.83-6.34-2.55-2.38-.72-4.8-1.49-7.28-2.29-2.47-.8-4.9-1.71-7.28-2.74-2.38-1.02-4.49-2.31-6.34-3.86-1.85-1.55-3.34-3.46-4.46-5.74-1.12-2.27-1.69-5.04-1.69-8.29,0-2.9.6-5.69,1.8-8.36,1.2-2.67,2.95-5.03,5.25-7.05,2.3-2.03,5.12-3.64,8.48-4.84,3.35-1.2,7.17-1.8,11.47-1.8,5,0,9.49.79,13.46,2.36,3.97,1.58,7.41,3.74,10.31,6.49l-3,4.88Z"/>
    <path d="M2439.93,703.19c0,1.3-.26,2.51-.79,3.64-.53,1.12-1.23,2.13-2.1,3-.88.88-1.89,1.56-3.04,2.06-1.15.5-2.38.75-3.67.75s-2.51-.25-3.64-.75c-1.12-.5-2.13-1.19-3-2.06-.88-.87-1.56-1.88-2.06-3-.5-1.12-.75-2.34-.75-3.64s.25-2.54.75-3.71c.5-1.17,1.19-2.2,2.06-3.08s1.88-1.56,3-2.06c1.12-.5,2.34-.75,3.64-.75s2.52.25,3.67.75c1.15.5,2.16,1.19,3.04,2.06.88.88,1.58,1.9,2.1,3.08.52,1.17.79,2.41.79,3.71ZM2436.93,727.04v75.97h-13.35v-75.97h13.35Z"/>
    <path d="M2489.28,725.84c5.55,0,10.56.93,15.04,2.77,4.47,1.85,8.27,4.48,11.4,7.88,3.12,3.4,5.52,7.51,7.2,12.34,1.67,4.83,2.51,10.21,2.51,16.16s-.84,11.4-2.51,16.2c-1.68,4.8-4.08,8.9-7.2,12.3-3.13,3.4-6.93,6.01-11.4,7.84-4.48,1.82-9.49,2.74-15.04,2.74s-10.56-.91-15.04-2.74-8.29-4.44-11.44-7.84c-3.15-3.4-5.58-7.5-7.27-12.3-1.7-4.8-2.55-10.2-2.55-16.2s.85-11.34,2.55-16.16c1.7-4.82,4.12-8.94,7.27-12.34,3.15-3.4,6.96-6.02,11.44-7.88,4.47-1.85,9.49-2.77,15.04-2.77ZM2489.28,793.64c7.5,0,13.1-2.51,16.8-7.54,3.7-5.03,5.55-12.04,5.55-21.04s-1.85-16.1-5.55-21.15c-3.7-5.05-9.3-7.58-16.8-7.58-3.8,0-7.1.65-9.9,1.95-2.8,1.3-5.14,3.18-7.01,5.62-1.88,2.45-3.28,5.46-4.2,9.04-.93,3.58-1.39,7.61-1.39,12.11s.46,8.53,1.39,12.08c.92,3.55,2.32,6.54,4.2,8.96,1.88,2.43,4.21,4.29,7.01,5.59,2.8,1.3,6.1,1.95,9.9,1.95Z"/>
    <path d="M2539.98,803.01v-75.97h7.95c1.9,0,3.1.93,3.6,2.77l1.05,8.25c3.3-3.65,6.99-6.6,11.06-8.85s8.79-3.38,14.14-3.38c4.15,0,7.81.69,10.99,2.06,3.17,1.38,5.82,3.33,7.95,5.85,2.12,2.53,3.74,5.56,4.84,9.11,1.1,3.55,1.65,7.48,1.65,11.78v48.38h-13.35v-48.38c0-5.75-1.31-10.21-3.94-13.39-2.62-3.17-6.64-4.76-12.04-4.76-3.95,0-7.64.95-11.06,2.85-3.42,1.9-6.59,4.48-9.49,7.72v55.95h-13.35Z"/>
    <path d="M2677.23,803.01h-5.92c-1.3,0-2.35-.2-3.15-.6s-1.33-1.25-1.58-2.55l-1.5-7.05c-2,1.8-3.95,3.41-5.85,4.84-1.9,1.42-3.9,2.62-6,3.6-2.1.98-4.34,1.71-6.71,2.21s-5.01.75-7.91.75-5.71-.42-8.29-1.24c-2.58-.83-4.81-2.07-6.71-3.73-1.9-1.66-3.41-3.75-4.54-6.28-1.12-2.53-1.69-5.53-1.69-8.99,0-3.01.82-5.91,2.47-8.69,1.65-2.78,4.31-5.26,7.99-7.41s8.49-3.93,14.44-5.31,13.22-2.07,21.83-2.07v-5.96c0-5.94-1.26-10.43-3.79-13.47-2.53-3.04-6.26-4.57-11.21-4.57-3.25,0-5.99.41-8.21,1.24-2.22.82-4.15,1.75-5.77,2.77-1.63,1.03-3.03,1.95-4.2,2.78-1.18.83-2.34,1.24-3.49,1.24-.9,0-1.69-.24-2.36-.71-.68-.47-1.21-1.06-1.61-1.76l-2.4-4.28c4.2-4.05,8.72-7.07,13.58-9.08,4.85-2,10.22-3,16.12-3,4.25,0,8.02.7,11.32,2.1,3.3,1.4,6.08,3.35,8.33,5.85,2.25,2.5,3.95,5.53,5.1,9.08,1.15,3.55,1.72,7.45,1.72,11.7v48.6ZM2642.58,794.84c2.35,0,4.5-.24,6.45-.71,1.95-.47,3.79-1.15,5.51-2.02s3.38-1.94,4.95-3.19,3.11-2.67,4.61-4.28v-15.67c-6.15,0-11.38.39-15.67,1.17-4.3.78-7.8,1.8-10.5,3.06s-4.66,2.74-5.89,4.45c-1.23,1.71-1.84,3.62-1.84,5.73s.33,3.75.98,5.21c.65,1.46,1.52,2.65,2.62,3.58,1.1.93,2.4,1.61,3.9,2.04,1.5.43,3.12.64,4.88.64Z"/>
    <path d="M2710.38,692.54v110.47h-13.35v-110.47h13.35Z"/>
    <path d="M2827.3,695.54v11.85h-51.6v35.7h41.78v11.4h-41.78v36.68h51.6v11.85h-66.23v-107.47h66.23Z"/>
    <path d="M2897.65,803.01c-1.9,0-3.1-.92-3.6-2.78l-1.2-9.22c-3.25,3.95-6.96,7.11-11.14,9.49-4.17,2.38-8.96,3.56-14.36,3.56-4.35,0-8.3-.84-11.85-2.51-3.55-1.67-6.58-4.14-9.08-7.39-2.5-3.25-4.42-7.3-5.78-12.15-1.35-4.85-2.02-10.42-2.02-16.72,0-5.6.75-10.81,2.25-15.64s3.66-9.01,6.49-12.56c2.82-3.55,6.26-6.34,10.31-8.36,4.05-2.03,8.65-3.04,13.8-3.04,4.65,0,8.62.79,11.92,2.36,3.3,1.58,6.25,3.79,8.85,6.64v-42.15h13.35v110.47h-7.95ZM2871.78,793.26c4.35,0,8.16-1,11.44-3,3.27-2,6.29-4.82,9.04-8.47v-36.75c-2.45-3.3-5.14-5.61-8.06-6.94-2.93-1.32-6.16-1.99-9.71-1.99-7.1,0-12.55,2.53-16.35,7.58-3.8,5.05-5.7,12.25-5.7,21.6,0,4.95.42,9.19,1.27,12.71.85,3.53,2.1,6.43,3.75,8.7,1.65,2.28,3.68,3.94,6.08,4.99,2.4,1.05,5.15,1.58,8.25,1.58Z"/>
    <path d="M2943.93,703.19c0,1.3-.26,2.51-.79,3.64-.53,1.12-1.23,2.13-2.1,3-.88.88-1.89,1.56-3.04,2.06-1.15.5-2.38.75-3.67.75s-2.51-.25-3.64-.75c-1.12-.5-2.13-1.19-3-2.06-.88-.87-1.56-1.88-2.06-3-.5-1.12-.75-2.34-.75-3.64s.25-2.54.75-3.71c.5-1.17,1.19-2.2,2.06-3.08s1.88-1.56,3-2.06c1.12-.5,2.34-.75,3.64-.75s2.52.25,3.67.75c1.15.5,2.16,1.19,3.04,2.06.88.88,1.58,1.9,2.1,3.08.52,1.17.79,2.41.79,3.71ZM2940.93,727.04v75.97h-13.35v-75.97h13.35Z"/>
    <path d="M2985.55,804.21c-6,0-10.61-1.67-13.84-5.03-3.23-3.35-4.84-8.17-4.84-14.47v-46.5h-9.15c-.8,0-1.48-.24-2.03-.71-.55-.47-.83-1.21-.83-2.21v-5.33l12.45-1.58,3.08-23.47c.1-.75.42-1.36.97-1.84.55-.47,1.25-.71,2.1-.71h6.75v26.18h21.75v9.67h-21.75v45.6c0,3.2.77,5.58,2.32,7.12,1.55,1.55,3.55,2.33,6,2.33,1.4,0,2.61-.19,3.64-.56,1.02-.38,1.91-.79,2.66-1.24s1.39-.86,1.91-1.24.99-.56,1.39-.56c.7,0,1.32.42,1.88,1.27l3.9,6.38c-2.3,2.15-5.08,3.84-8.32,5.06-3.25,1.22-6.6,1.84-10.05,1.84Z"/>
    <path d="M3047.27,725.84c5.55,0,10.56.93,15.04,2.77,4.47,1.85,8.27,4.48,11.4,7.88,3.12,3.4,5.52,7.51,7.2,12.34,1.67,4.83,2.51,10.21,2.51,16.16s-.84,11.4-2.51,16.2c-1.68,4.8-4.08,8.9-7.2,12.3-3.13,3.4-6.93,6.01-11.4,7.84-4.48,1.82-9.49,2.74-15.04,2.74s-10.56-.91-15.04-2.74-8.29-4.44-11.44-7.84c-3.15-3.4-5.58-7.5-7.27-12.3-1.7-4.8-2.55-10.2-2.55-16.2s.85-11.34,2.55-16.16c1.7-4.82,4.12-8.94,7.27-12.34,3.15-3.4,6.96-6.02,11.44-7.88,4.47-1.85,9.49-2.77,15.04-2.77ZM3047.27,793.64c7.5,0,13.1-2.51,16.8-7.54,3.7-5.03,5.55-12.04,5.55-21.04s-1.85-16.1-5.55-21.15c-3.7-5.05-9.3-7.58-16.8-7.58-3.8,0-7.1.65-9.9,1.95-2.8,1.3-5.14,3.18-7.01,5.62-1.88,2.45-3.28,5.46-4.2,9.04-.93,3.58-1.39,7.61-1.39,12.11s.46,8.53,1.39,12.08c.92,3.55,2.32,6.54,4.2,8.96,1.88,2.43,4.21,4.29,7.01,5.59,2.8,1.3,6.1,1.95,9.9,1.95Z"/>
    <path d="M3097.97,803.01v-75.97h7.95c1.9,0,3.1.93,3.6,2.77l1.05,8.25c3.3-3.65,6.99-6.6,11.06-8.85s8.79-3.38,14.14-3.38c4.15,0,7.81.69,10.99,2.06,3.17,1.38,5.82,3.33,7.95,5.85,2.12,2.53,3.74,5.56,4.84,9.11,1.1,3.55,1.65,7.48,1.65,11.78v48.38h-13.35v-48.38c0-5.75-1.31-10.21-3.94-13.39-2.62-3.17-6.64-4.76-12.04-4.76-3.95,0-7.64.95-11.06,2.85-3.42,1.9-6.59,4.48-9.49,7.72v55.95h-13.35Z"/>
  </g>
</svg>