<svg xmlns="http://www.w3.org/2000/svg" viewBox="0 0 1280 387" preserveAspectRatio="xMidYMid meet" role="img" aria-labelledby="firehubLogo">
    <title id="firehubLogo">Firehub Logo</title>
    <style>
        .color {fill: #d50000;}
    </style>
    <g class="color">
        <path d="M267.06,262.56c10.5-17.63,19.63-36.93,20.12-57.45s-9.6-42.42-28.46-50.52c5.71,9.67,10.25,20.62,9.28,31.81s-8.86,22.37-20,24c-10.49,1.53-20.77-5.85-25.51-15.34s-4.62-20.56-4-31.15C224.35,56.17,142,5.94,127.24,0c0,0,11.49,12.39,13.88,30.53,1.9,14.44.17,29.22-3.34,43.24-10.88,43.35-36.86,77.82-58.59,116-14.58,25.58-24,54.05-23.32,83.69.76,34,16,67.9,42.73,88.87,13.05,10.23,28.32,17.65,43.84,23.29-2.19-2.62-4.85-5.62-7-8.6-18.68-25.94-32.26-51.5-33.17-84.11-.77-28.23,7.4-53.93,15.14-80.61-.91,3.14,1.83,10.7,2.1,14.21.41,5.4.46,10.82.5,16.22.08,11.47-.14,23,1.32,34.38,3.42,26.74,18.28,49.71,43.26,61.2-8.47-19.69-9.31-36.3-1.28-56.72,6.05-15.37,14.71-29.78,18.94-45.75,8.63-32.56-2.42-67.64-20.75-95.89,17.32,15.31,32,34.45,38.3,56.7,7.36,26,2.86,53.56,0,80.39-2.51,23.21-3.71,48,5.42,70.05,8,19.23,22.4,29.52,39.51,40a31.59,31.59,0,0,1-8.55-11.09c-9.16-18.37-6.73-40.66.79-59.76S256.57,280.2,267.06,262.56Z"/>
        <path d="M173.09,22.43a190.61,190.61,0,0,1,14.36,15.79q2.66,3.28,5.13,6.64a146.55,146.55,0,0,1,56.54,265.5c-1.43,3-2.77,6-4,9a91.25,91.25,0,0,0-5.37,19.8A166.84,166.84,0,0,0,173.09,22.43Z"/>
        <path d="M47,273.61v-.08a146.56,146.56,0,0,1,86-227,88.06,88.06,0,0,0-.62-14.86,45.2,45.2,0,0,0-1.11-5.56A166.82,166.82,0,0,0,53.55,311.58,131.42,131.42,0,0,1,47,273.61Z"/>
    </g>
    <g class="color">
        <path d="M502.3,143.25V170H422.17v53.5H489.8v26.88H422.17V324H388.3V143.25Z"/>
        <path d="M564.42,158.38a17.54,17.54,0,0,1-1.63,7.5,20.41,20.41,0,0,1-10.62,10.31,19.41,19.41,0,0,1-7.75,1.56,18.61,18.61,0,0,1-7.56-1.56,20,20,0,0,1-6.19-4.19,20.24,20.24,0,0,1-4.19-6.12,18.26,18.26,0,0,1-1.56-7.5,19.37,19.37,0,0,1,1.56-7.75,19.59,19.59,0,0,1,10.38-10.44,18.61,18.61,0,0,1,7.56-1.56,19.41,19.41,0,0,1,7.75,1.56,20.64,20.64,0,0,1,6.31,4.19,20.09,20.09,0,0,1,4.31,6.25A18.6,18.6,0,0,1,564.42,158.38Zm-4.63,37.37V324H528.92V195.75Z"/>
        <path d="M594.67,324V195.75h18.12c3.17,0,5.38.59,6.63,1.75s2.08,3.17,2.5,6l1.87,15.5a61,61,0,0,1,16.13-18.75,33.93,33.93,0,0,1,20.75-6.87q9.5,0,15.75,4.37l-4,23.13a4.76,4.76,0,0,1-1.63,3.18,5.46,5.46,0,0,1-3.37.94,21.22,21.22,0,0,1-5.13-.87,34,34,0,0,0-8.62-.88,26.18,26.18,0,0,0-16.5,5.31q-6.88,5.33-11.63,15.57V324Z"/>
        <path d="M749.79,193.75a62.12,62.12,0,0,1,22.31,3.88,48.86,48.86,0,0,1,17.57,11.31,51.77,51.77,0,0,1,11.5,18.25,68.94,68.94,0,0,1,4.12,24.69,44.41,44.41,0,0,1-.31,5.81,9.31,9.31,0,0,1-1.13,3.62,4.57,4.57,0,0,1-2.18,1.88,9.47,9.47,0,0,1-3.5.56H718.92q1.37,19.75,10.62,29T754,302A42.37,42.37,0,0,0,767,300.25a60.94,60.94,0,0,0,9.5-3.87q4.07-2.13,7.12-3.88a12,12,0,0,1,5.94-1.75,6.7,6.7,0,0,1,3.25.75,7.18,7.18,0,0,1,2.38,2.13l9,11.25a51.56,51.56,0,0,1-11.5,10.06,64.6,64.6,0,0,1-13.32,6.5,73.27,73.27,0,0,1-14.12,3.44,102.21,102.21,0,0,1-13.94,1,68.41,68.41,0,0,1-24.87-4.44,55.52,55.52,0,0,1-20-13.13A61.45,61.45,0,0,1,693,286.81q-4.87-12.81-4.87-29.68a70.86,70.86,0,0,1,4.25-24.69,59.34,59.34,0,0,1,12.18-20.13A57.54,57.54,0,0,1,724,198.75,63.86,63.86,0,0,1,749.79,193.75Zm.63,22.13q-13.5,0-21.13,7.62t-9.75,21.63h58a38.68,38.68,0,0,0-1.62-11.32,26.23,26.23,0,0,0-5-9.31,23.77,23.77,0,0,0-8.5-6.31A29,29,0,0,0,750.42,215.88Z"/>
        <path d="M984.66,324H950.79V245H866v79H832.16V143.25H866V221h84.75V143.25h33.87Z"/>
        <path d="M1047.66,195.75v81.5q0,11.76,5.44,18.19t16.31,6.44a32.57,32.57,0,0,0,15-3.57,52.22,52.22,0,0,0,13.25-9.81V195.75h30.88V324h-18.88q-6,0-7.87-5.62l-2.13-10.25a91.51,91.51,0,0,1-8.25,7.31,49.37,49.37,0,0,1-9.06,5.62,50.68,50.68,0,0,1-10.38,3.63A52,52,0,0,1,1060,326a45.67,45.67,0,0,1-18.57-3.56,37.33,37.33,0,0,1-13.56-10.06,44,44,0,0,1-8.31-15.44,65.19,65.19,0,0,1-2.81-19.69v-81.5Z"/>
        <path d="M1161.91,324V138.25h30.88V211.5A60.93,60.93,0,0,1,1210,198.56q9.62-4.8,22.5-4.81a41.56,41.56,0,0,1,34.18,16.88,60.13,60.13,0,0,1,9.75,20.37,102.59,102.59,0,0,1,3.44,27.88A87.92,87.92,0,0,1,1276,285.5,65.29,65.29,0,0,1,1265,306.75a51,51,0,0,1-17.37,14.06,50.5,50.5,0,0,1-22.81,5.07,45.49,45.49,0,0,1-10.75-1.19,38.33,38.33,0,0,1-8.88-3.31,37.92,37.92,0,0,1-7.44-5.19,63.44,63.44,0,0,1-6.56-6.81l-1.37,8.62a7.76,7.76,0,0,1-2.57,4.63,8,8,0,0,1-4.93,1.37Zm60-106.25q-9.63,0-16.44,4.06a47.59,47.59,0,0,0-12.68,11.44v57.5a29.26,29.26,0,0,0,11.43,9.06,34.79,34.79,0,0,0,13.44,2.57,29.51,29.51,0,0,0,12.63-2.63,24.71,24.71,0,0,0,9.56-8,39.68,39.68,0,0,0,6.06-13.56,77.35,77.35,0,0,0,2.13-19.31,85.67,85.67,0,0,0-1.82-19.07,36.89,36.89,0,0,0-5.18-12.68,20.5,20.5,0,0,0-8.19-7.13A25.56,25.56,0,0,0,1221.91,217.75Z"/>
    </g>
</svg>