<svg xmlns="http://www.w3.org/2000/svg" viewBox="0 0 878.8 890.7" preserveAspectRatio="xMidYMid meet" role="img" aria-labelledby="firehubCoreIcon">
  <title id="firehubCoreIcon">FireHub Core Icon</title>
  <style>
    .color {fill: #d50000;}
  </style>
  <g class="color">
    <path d="M878.8,457c-11.2,29.9-51.3,31.3-62.7,1h-157.4s-4,31-4,31h94.5l38.5,33.5c29.3-16.9,61,15.1,45.6,44.5-17.8,34.1-71.3,11.2-59.1-26.1-11.4-9.8-21.7-21.2-34.2-29.7h-90.7c0,0-13.6,30.8-13.6,30.8h68.5l60.1,60.8c37.9-9.2,41.3,50.9,4,47.1-15.8-1.6-21.8-16-19.6-30.4l-52.7-54.3-73.6-.2-18.5,25.4,90.9,92.2c11.7-3.2,19.8-3.8,30.6,2.3,38.4,21.5.2,83.7-36.7,53.7-13-10.6-14.2-25.3-9.5-40.5l-91.2-92-26.2,19.6v76.6s52.3,51.8,52.3,51.8c8.2,2.1,13-.7,20.9,4.1,21.1,12.7,11.2,47.8-15.7,44.7-10.5-1.2-20.3-12-20.6-22.4-.1-3.6,2.2-7,0-10l-59-59v-72.5l-31,12.7v95.8c0,0,31.2,35.3,31.2,35.3,9.4-.9,16.4-2,25.1,2.4,23.5,11.6,23.7,47.2.3,59-24.9,12.6-50.3-8.9-46.6-35.6.5-3.5,5.3-10.8,4.5-12.6-5-6.1-36.5-36.5-36.5-41.5v-97.5c-6.2.8-12.3,2.3-18.5,3-2.9.3-10.4-1.2-11.4,1.7v162.9c.3,2.4,9.5,6.6,12.4,9.5,12.7,12.8,11.2,36.9-2.5,48.5-34.1,29-78-25.2-37.8-53.8,2.1-1.5,5.4-1.6,5.8-4.2v-164.5l-31-3v100.5l-34.5,37.5c.4,5.8,4.2,10.9,4.5,17.5,1.4,25.2-23.6,43.3-46.7,31.7-26.3-13.3-22-54.1,6.2-61.1,7-1.8,11.6-.5,18.4-.5l30.8-35.2v-95.7c0,0-30.8-12.6-30.8-12.6v71.5c-6.4,8.9-59.1,55.5-59.7,61.1-.5,4.4,1.6,9.1,0,15.2-5.1,19.7-35.1,22.3-43.8,3.2-8.9-19.5,7.3-38.6,28-35l54.1-53.9.2-74.4-26.3-21.5-91,91.8c-1.4,3,1.2,6.1,1.5,9.5,3.9,45-50.2,52-62.2,17.2-6.8-19.5,6.5-41,27-43.5,7-.8,11.8,2,18.2,2.3l90.9-93.2-18.6-24.3-74.6.2-52.2,53.7c7.5,24.7-25,42.7-41,23-15.1-18.7,2-44.9,24.8-39.2l60.1-60.8h69.5l-13.6-30.9h-92.8c-2.1.3-3.9,2.1-5.6,3.3-3.4,2.5-28.8,24.6-29.4,26.5-.3.9,1.6,7.8,1.5,10.6-.5,33.4-45.9,44.8-60.9,14.8-11.8-23.5,5.8-50.8,32.2-48.2,5,.5,12.1,5,15.6,3.4l36.5-32.5h97.5l-4-31H63.5c-16.2,40.3-74.4,20.8-61.7-21.5,8.9-29.6,51-30.5,61-1.5h171c-.6-10.5,1.7-20.7,3-31h-94.5l-39.5-34.5c-3.1-1.4-7.2,2.2-10.8,3.2-30,8.4-53.1-29.1-32.6-53.6,16.8-20,51.3-11.7,56,13.9.9,4.7-.8,16.4,0,18s16.7,15.2,19.5,17.5,14.7,12.8,16.7,13.3h89.6c0,0,11.6-30.8,11.6-30.8h-65.5l-60-62c-3.1-3-6.8-.7-11-1-18.6-1.3-28.3-24.6-16.5-39.5,13.8-17.4,42.1-7.3,42.1,15,0,3.3-1.9,6.7-.6,9.5l54.2,54.8h69.6s23.6-30.2,23.6-30.2l-90-91.2c-11.4,3-20.5,4.4-31.3-1.7-21.3-12.1-21.1-44.7,0-56.6,22.3-12.6,48.4,2.9,48.4,28.3s-2.3,9.6-1.6,14.5l89.2,89.9,2.3.7,23.8-20.2v-72.6s-51.3-51.8-51.3-51.8c-6.1-1.3-9.6.9-16.5-1.5-23.9-8.2-19.5-45.6,6.4-46.5,17.7-.6,27.3,13.8,24.5,30.5l57.5,58.5,1.5,71,31-12v-28c7.4,4.6,36,45.9,30.9,51.9-76.5,13.5-134.6,76.2-147.4,152-23.5,138.5,112,256.1,245,205,11,6.1,22.2,11.3,34.6,14l-13.9-23.4c21.7-13.5,41.1-28.8,56.9-49.1,89.8-115.9,19.8-284.6-125-301-10.6-11.2-22.3-21.2-35-30l5.1-.9,1-3V65.4c-.5-2.5-9.1-6-12.1-8.9-26.3-26.1,6.7-70.8,39-52,18.4,10.7,22.2,38.8,6.1,53-2.8,2.4-10.5,5.4-11,8v162.5c2.8.1,5.7-.3,8.5,0,5.5.5,14.4,3,19.1,3s2.7,0,3.3-1.6c-1.3-7-1.1-14.8-.9-22,0-2.8,1-5.3,1.1-7.9.5-23-.5-46,0-69l34.9-39.2c.4-1.6-5-9.4-5.7-13-6.6-39.1,45.1-55.6,60.9-21.9,12.2,25.8-9.2,50.9-36.2,47.2-11.1,12.2-23.3,23.7-33,37v95.9c0,0,31,11.6,31,11.6v-65.5c0-.5,2.4-4.9,3-5.8l56-55.4c0-11.1-.5-20.4,9.2-27.8,23.8-18.1,51.5,15.5,31.9,35.9-7.1,7.4-16.7,7.8-26,7l-51.6,52.4-.5,72.4,26.4,19.6,89.2-89.9c-1.1-8.2-3.3-13.5-1.3-22.2,6.9-29.8,47.7-34.1,60.2-6.8,10.8,23.5-7.1,49.7-33,47-2.9-.3-8.6-3.3-10.5-2.5l-88.8,91,23.5,30.3h68.6s52.2-54.9,52.2-54.9c-1.7-12.3,0-24,11.8-30.1,23.4-12.1,44.8,15.6,30.1,36.1-7.1,10-16.3,8.4-27,10l-57.9,62.1h-65.5l9.8,28.7,1.9,2.1h88.6s33.2-29.9,33.2-29.9c-7.1-26.5,15.4-52.2,42.8-41.9,34.6,13.1,21.4,68.4-15.6,63.6-4.1-.5-12.5-5.3-14.7-4.3l-37.5,34.5h-91c-.4,0-1.7,1.6-1.5,2.4l3,28.6h157.5c12.4-29,52.2-28.2,62.5,2v20h0ZM442.6,22.2c-13.1,3-8.8,26.4,7.4,21.3,11.9-3.7,8.1-24.9-7.4-21.3ZM549.3,59.5c-16,0-14.9,25.8,2.8,22.3,11.2-2.2,10.9-22.3-2.8-22.3ZM191.5,184.6c9.7-9.1-1.9-25.4-13.6-18.1-14.1,8.8,1.7,29.3,13.6,18.1ZM703.6,165.2c-9,2-10.4,19.5,1.5,22.1,17,3.7,18.8-26.8-1.5-22.1ZM81.6,329.2c-13.9,2.6-10.7,24.5,3.7,22.8,15.1-1.8,11.7-25.7-3.7-22.8ZM802.6,329.2c-17.7,2.6-8.6,30.1,7.2,21.2,11.3-6.4,4.4-23-7.2-21.2ZM24.2,438.3c-11.5,12.1,9.3,30.2,17.9,14.4,6.7-12.3-8.7-24-17.9-14.4ZM839.2,438.3c-9,9.4,1.8,26.1,14,18.5,14.9-9.3-2.6-30.4-14-18.5ZM82.6,539.2c-16.5,2.7-9.3,30,7,22,11.8-5.8,5.2-24-7-22ZM802.6,539.2c-16.8,3.3-6.8,31.1,8.6,21.6,11-6.8,3.6-24-8.6-21.6ZM708.5,701.3c-12,.7-14.8,19-2.7,22.2,17.8,4.7,19.1-23.2,2.7-22.2ZM179.6,702.2c-10.3,2.4-10.6,20,1.9,21.7,17.6,2.5,17.6-26.2-1.9-21.7ZM340.6,803.1c-14.9,1.7-12.2,24.5,2.6,22.8,14.3-1.7,11.9-24.4-2.6-22.8ZM549.6,803.1c-13.7,1.5-12.8,23.3,1.7,22.9,15.3-.5,13.2-24.5-1.7-22.9ZM445.5,845.3c-14,.2-14.4,24.2.7,23.6,14.3-.5,14.2-23.8-.7-23.6Z"/>
    <path d="M545.9,387c16.5,6.6,27.7,27.4,29,44.5,4.9,63.9-80.8,109.6-54.3,174.3,1.5,3.7,4.2,6.5,5.3,10.2-18.9-8.5-33.9-26.2-39.3-46.2-15.7-58.5,22.6-110.4-16.3-168.7-3-4.5-19.2-24.4-22.9-26.1-.4-.2-1.6-.2-1.5.5,11.2,16.3,20.1,35.3,22.9,55.1,5.5,39.6-11.6,52.3-23.4,84.4-6.7,18.2-6.6,38.3,1.5,56-28.8-12.7-43.8-38.9-47-69.5-1.7-16.3.5-32.6-1.1-48.9-.1-1-.4-4.7-1.9-4.6-4.5,14.5-10,28.8-12.7,43.8-5.1,28.2-4,53.3,7.8,79.5,7.7,17.2,19.1,32.1,30.9,46.6-59.2-15.6-96.9-69-90-130.5,5.9-52,40.8-87.6,65.2-130.8,20.9-37.2,40.9-87.8,12.8-126.7,46.2,22.4,80.9,70.2,89.7,120.8,3.8,21.7,1.4,41.8,3.3,62.7,2.3,24.6,28.9,40.8,45,19,10.4-14.1,3.4-31.4-3-45.5h0Z"/>
    <path d="M525.8,591v-20.5c0-4.5,14.2-13.6,18-17,76.3-69.2,59.1-194.9-31.3-242.7-3.5-1.8-16.7-6.4-18.4-8.1-1.4-1.4-3.9-8.5-5.5-11-2.8-4.6-5.9-9.1-8.8-13.7,60.2,12,109.4,59.7,126.3,118.2,19.2,66.7-3.8,137.9-57.8,180.7-6.6,5.2-14.7,11-22.5,14h0Z"/>
    <path d="M415.8,278l-4.5,21c-90.7,25.3-136.3,124.4-95.4,210.4,2,4.3,6.8,9.9,8.3,13.7s1.7,9.5,3.1,13.9c4.7,15,12.1,29,21.5,41.5l-1.5.5c-50.9-40-76.3-103.7-64-168,12.4-65.2,66.3-122.3,132.5-133h0Z"/>
    <path d="M364.5,47.3c7.6,7.7,10.6,19.2,9.1,29.9-.8,5.3-4.2,9.2-4.6,14l35.5,39.2c-2,27.6,1.5,55,.4,82.5l-22-11.7-.5-62.3-32.5-35.5c-2.8-1.6-5.7.5-8.4.4-10.8-.5-22.7-7.5-27.8-17.2-17.2-32.9,25-65.2,50.8-39.3h0ZM341.5,59.3c-14.9.9-14,25.3,2.8,22.6,12.6-2,11.1-23.4-2.8-22.6Z"/>
  </g>
</svg>