<svg xmlns="http://www.w3.org/2000/svg" viewBox="0 0 596.691 601.81">
    <title>Firehub Core Icon</title>
    <style type="text/css">
        .color {fill: #d50000; fill-rule:evenodd; clip-rule:evenodd;}
    </style>
    <path class="color" d="M201.36,210.17H385.25V394.06H201.36Zm45.24,45.24H340v93.42H246.6Zm-5.16-9.59H345.18a4.44,4.44,0,0,1,4.43,4.42V354a4.45,4.45,0,0,1-4.43,4.43H241.44A4.44,4.44,0,0,1,237,354V250.24A4.44,4.44,0,0,1,241.44,245.82Zm131-26.3h-23l26.55,26.55V223A3.52,3.52,0,0,0,372.39,219.52ZM332.4,102a6.88,6.88,0,1,1-6.89,6.88A6.88,6.88,0,0,1,332.4,102Zm138.52-3.1a15.44,15.44,0,1,1-15.17,15.44A15.31,15.31,0,0,1,470.92,98.9ZM453.27,225.16a6.89,6.89,0,1,1-6.89-6.88A6.89,6.89,0,0,1,453.27,225.16ZM491.56,263a6.89,6.89,0,1,1-6.89-6.88A6.88,6.88,0,0,1,491.56,263Zm70.94,23.41a15.44,15.44,0,1,1-15.43,15.44A15.44,15.44,0,0,1,562.5,286.43ZM452.1,338.62a6.89,6.89,0,1,1-6.88-6.89A6.88,6.88,0,0,1,452.1,338.62Zm47.7,149.86a15.44,15.44,0,1,1-15.43-15.43A15.43,15.43,0,0,1,499.8,488.48Zm-95.05,6.88a6.88,6.88,0,1,1,0-9.73A6.89,6.89,0,0,1,404.75,495.36Zm-74.08-49.85a7.22,7.22,0,1,1-7.21,7.22A7.22,7.22,0,0,1,330.67,445.51Zm0-7.86a15.08,15.08,0,1,1-15.07,15.08A15.08,15.08,0,0,1,330.67,437.65Zm-75.22,46.08a7.21,7.21,0,1,1-7.22,7.21A7.21,7.21,0,0,1,255.45,483.73Zm-74.94,8.2a6.89,6.89,0,1,0,0-9.74A6.89,6.89,0,0,0,180.51,491.93ZM89.63,480.62a15.44,15.44,0,1,0,15.44-15.44A15.43,15.43,0,0,0,89.63,480.62Zm8.32-142a6.89,6.89,0,1,0,6.89-6.89A6.88,6.88,0,0,0,98,338.62Zm40-76.8a6.89,6.89,0,1,0,6.89-6.88A6.88,6.88,0,0,0,137.9,261.82ZM256.21,141.38a6.89,6.89,0,1,0,6.88,6.88A6.88,6.88,0,0,0,256.21,141.38ZM179.85,107a6.88,6.88,0,1,1,0,9.73A6.89,6.89,0,0,1,179.85,107ZM34.17,286.43a15.44,15.44,0,1,0,15.44,15.44A15.43,15.43,0,0,0,34.17,286.43ZM308.5,567.64a15.44,15.44,0,1,1-15.44-15.43A15.44,15.44,0,0,1,308.5,567.64ZM293.06,18.74a15.44,15.44,0,1,1-15.43,15.43A15.43,15.43,0,0,1,293.06,18.74ZM89.46,129a15.44,15.44,0,1,1,15.44,15.17A15.3,15.3,0,0,1,89.46,129Zm99.12,57.55h22V143.19L192.35,125a15.23,15.23,0,1,1,5.57-5.56L206.5,128l4,4,7.86,7.86v46.64h33.88V163a15.24,15.24,0,1,1,7.86,0v23.58h29V68.12a34.18,34.18,0,1,1,7.87,0V186.57h31.46v-63a15.25,15.25,0,1,1,7.87,0v63h30V142.88l7.74-7.87,9.21-9.38,5.56-5.65,1.68-1.71,7.73-7.87h39.31a33.81,33.81,0,0,1,33.37-30.24c18.55,0,33.58,15.3,33.58,34.18s-15,34.17-33.58,34.17a33.81,33.81,0,0,1-33.37-30.24H401.44l-27.38,27.86v40.44h24a10.85,10.85,0,0,1,10.81,10.82v23.84h22.8a15.24,15.24,0,1,1,0,7.86h-22.8v30H470a15.24,15.24,0,1,1,0,7.86h-61.1v31H528.56a34.18,34.18,0,1,1,0,7.87H408.85v28.88h21.64a15.25,15.25,0,1,1,0,7.87H408.85v39.28h47l7.86,7.87,9.38,9.38,5.65,5.65,1.71,1.71,7.87,7.86v40.24a34.18,34.18,0,1,1-7.87,0v-37L452.57,389.7H408.85v17.15A10.85,10.85,0,0,1,398,417.66h-24v41.46l18.18,18.18a15.25,15.25,0,1,1-5.56,5.56l-8.59-8.58-4-4-7.87-7.86V417.66H297v116a34.18,34.18,0,1,1-7.87,0v-116H259.38v58.72a15.08,15.08,0,1,1-7.87,0V417.66H219.06v41.28l-7.86,7.87-4,4-8.58,8.59a15.25,15.25,0,1,1-5.57-5.57l18.19-18.18v-38H188.58a10.85,10.85,0,0,1-10.82-10.81V381.79h-40.9L109,409.65v37a34.18,34.18,0,1,1-7.87,0V406.39l7.87-7.86,1.71-1.71,5.65-5.65,9.38-9.38,7.87-7.87h44.15V342.55h-58.2a15.25,15.25,0,1,1,0-7.87h58.2V305.8H68.12a34.17,34.17,0,1,1,0-7.87H177.76V265.75H159.51a15.24,15.24,0,1,1,0-7.86h18.25V233.61H133.44l-7.87-7.73-9.38-9.21-5.65-5.56-1.71-1.68L101,201.7V162.38A33.8,33.8,0,0,1,70.72,129c0-18.55,15.3-33.59,34.18-33.59s34.17,15,34.17,33.59a33.8,33.8,0,0,1-30.24,33.36V198.5l27.86,27.38h41.07V197.39A10.85,10.85,0,0,1,188.58,186.57Z"/>
</svg>