<svg xmlns="http://www.w3.org/2000/svg" viewBox="0 0 334 387" preserveAspectRatio="xMidYMid meet" role="img" aria-labelledby="firehubIcon">
    <title id="firehubIcon">Firehub Icon</title>
    <style>
        .color {fill: #d50000;}
    </style>
    <g class="color">
        <path d="M267.106,262.561c10.5-17.631,19.63-36.931,20.12-57.451c0.49-20.52-9.6-42.419-28.46-50.52c5.71,9.67,10.25,20.62,9.28,31.81c-0.97,11.19-8.86,22.37-20,24c-10.49,1.529-20.77-5.851-25.51-15.34c-4.74-9.491-4.62-20.561-4-31.15C224.396,56.17,142.046,5.94,127.286,0c0,0,11.49,12.39,13.88,30.53c1.9,14.44,0.17,29.22-3.34,43.24c-10.88,43.35-36.86,77.82-58.59,116c-14.58,25.58-24,54.05-23.32,83.69c0.76,34,16,67.9,42.73,88.87c13.05,10.229,28.32,17.65,43.84,23.29c-2.19-2.62-4.85-5.62-7-8.601c-18.68-25.939-32.26-51.5-33.17-84.109c-0.77-28.23,7.4-53.93,15.14-80.61c-0.91,3.14,1.83,10.7,2.1,14.21c0.41,5.4,0.46,10.82,0.5,16.221c0.08,11.47-0.14,23,1.32,34.379c3.42,26.74,18.28,49.711,43.26,61.201c-8.47-19.69-9.31-36.301-1.28-56.721c6.05-15.369,14.71-29.779,18.94-45.75c8.63-32.56-2.42-67.64-20.75-95.89c17.32,15.31,32,34.45,38.3,56.7c7.36,26,2.86,53.56,0,80.39c-2.51,23.21-3.71,48,5.42,70.05c8,19.23,22.4,29.521,39.51,40c-3.644-3.011-6.566-6.8-8.55-11.09c-9.16-18.37-6.73-40.66,0.79-59.76S256.616,280.2,267.106,262.561z"/>
        <path d="M173.136,22.43c5.078,4.991,9.872,10.262,14.36,15.79c1.773,2.187,3.483,4.4,5.13,6.64c79.674,14.244,132.716,90.38,118.472,170.054c-6.947,38.857-29.276,73.27-61.932,95.446c-1.43,3-2.77,6-4,9c-2.528,6.377-4.33,13.019-5.37,19.8c82.849-40.329,117.318-140.185,76.989-223.033C289.849,60.79,234.635,24.777,173.136,22.43z"/>
        <path d="M47.046,273.609v-0.08C0.435,207.354,16.296,115.923,82.471,69.313c15.254-10.744,32.42-18.477,50.575-22.783c0.212-4.962,0.005-9.933-0.62-14.86c-0.253-1.875-0.624-3.731-1.11-5.56C41.299,45.738-15.763,134.623,3.865,224.64c7.28,33.39,24.64,63.738,49.731,86.94C49.559,299.314,47.352,286.52,47.046,273.609z"/>
    </g>
</svg>